<?xml version="1.0" encoding="utf-8"?>
<!-- Generator: Adobe Illustrator 16.0.0, SVG Export Plug-In . SVG Version: 6.00 Build 0)  -->
<!DOCTYPE svg PUBLIC "-//W3C//DTD SVG 1.1//EN" "http://www.w3.org/Graphics/SVG/1.1/DTD/svg11.dtd">
<svg version="1.1" id="Layer_1" xmlns="http://www.w3.org/2000/svg" xmlns:xlink="http://www.w3.org/1999/xlink" x="0px" y="0px"
	 width="850px" height="595.281px" viewBox="0 0 850 595.281" enable-background="new 0 0 850 595.281" xml:space="preserve">
<g>
	<path fill="#ED302A" d="M201.619,374.792c-8.641,3.446-25.402,7.173-41.835,7.173c-42.729,0-67.239-25.053-67.239-68.707
		c0-43.699,24.996-69.768,66.883-69.768c14.942,0,29.09,2.734,42.04,8.166l11.255,4.732l16.287-63.533l-7.443-3.852
		c-11.182-5.806-34.038-12.006-64.652-12.006c-39.578,0-75.421,12.842-100.954,36.155c-27.583,25.198-42.152,60.936-42.152,103.36
		c0,38.074,12.136,70.581,35.116,94.019c24.363,24.803,59.812,37.927,102.58,37.927c32.417,0,56.362-6.234,67.024-11.577
		l7.167-3.558l-12.227-63.273L201.619,374.792z"/>
	<rect x="245.218" y="180.408" fill="#283A96" width="76.207" height="263.871"/>
	<path fill="#283A96" d="M503.181,202.015c-18.298-14.649-44.738-21.754-80.803-21.754c-30.146,0-55.719,1.74-75.964,5.184
		l-8.782,1.491v257.331h75.479v-84.226c2.603,0.112,5.336,0.168,8.205,0.168c36.585,0,66.358-9.849,86.124-28.496
		c16.523-15.666,25.627-38.877,25.627-65.262C533.066,240.508,522.156,217.025,503.181,202.015 M457.583,267.887
		c0,25.311-22.961,29.084-36.657,29.084c-3.016,0-5.584-0.068-7.815-0.181v-53.481c3.292-0.317,7.385-0.542,12.147-0.542
		C451.98,242.766,457.583,256.423,457.583,267.887"/>
	<path fill="#283A96" d="M824.373,122.962c0,28.836-23.393,52.216-52.239,52.216c-28.841,0-52.251-23.379-52.251-52.216
		c0-28.87,23.41-52.239,52.251-52.239C800.98,70.723,824.373,94.093,824.373,122.962"/>
	<path fill="#283A96" d="M653.764,122.962c0,28.836-23.391,52.216-52.256,52.216c-28.842,0-52.232-23.379-52.232-52.216
		c0-28.87,23.391-52.239,52.232-52.239C630.373,70.723,653.764,94.093,653.764,122.962"/>
	<path fill="#283A96" d="M539.652,508.636c4.354,4.078,8.482,6.1,12.379,6.1c1.987,0,3.682-0.634,5.093-1.909
		c1.4-1.288,2.103-2.835,2.103-4.643c0-1.468-0.48-2.767-1.502-3.908c-1.029-1.129-2.943-2.439-5.772-3.852
		c-3.998-1.954-7.036-4.146-9.115-6.563c-2.124-2.428-3.185-5.479-3.185-9.183c0-4.72,1.661-8.708,4.97-11.961
		c3.31-3.242,7.702-4.857,13.158-4.857c3.738,0,7.624,1.028,11.668,3.016v13.566c-3.559-3.445-7.015-5.15-10.29-5.15
		c-1.638,0-3.056,0.463-4.247,1.467c-1.191,0.961-1.768,2.136-1.768,3.536c0,1.355,0.469,2.507,1.475,3.479
		c0.927,1.004,2.693,2.045,5.263,3.185c4.28,1.909,7.499,4.089,9.691,6.528c2.202,2.474,3.321,5.783,3.321,9.974
		c0,5.264-1.904,9.771-5.699,13.475c-3.778,3.716-8.392,5.58-13.864,5.58c-4.225,0-8.787-1.288-13.678-3.83V508.636z"/>
	<path fill="#283A96" d="M590.14,492.834c0.802-2.01,1.75-3.5,2.881-4.517c1.157-1.006,2.462-1.515,3.987-1.515
		c1.004,0,2.026,0.307,3.14,0.916v12.209c-1.321-0.654-2.531-0.972-3.603-0.972c-1.661,0-3.038,0.668-4.118,2.012
		c-1.095,1.344-1.653,3.05-1.653,5.15v20.376H577.67v-38.775h11.164L590.14,492.834z"/>
	<path fill="#283A96" d="M611.408,468.777c1.751,0,3.354,0.633,4.801,1.897c1.456,1.276,2.158,2.936,2.158,4.97
		c0,1.932-0.685,3.569-2.046,4.891c-1.396,1.321-3.033,1.987-4.913,1.987c-1.971,0-3.608-0.688-4.947-2.044
		c-1.344-1.377-2.033-2.994-2.033-4.88c0-1.897,0.712-3.513,2.09-4.834S609.533,468.777,611.408,468.777 M604.856,487.696h12.956
		v38.82h-12.956V487.696z"/>
	<polygon fill="#283A96" points="645.892,469.704 659.179,469.704 659.179,514.905 677.415,514.905 677.415,526.516 
		645.892,526.516 	"/>
	<path fill="#283A96" d="M686.106,489.955c4.411-2.113,8.602-3.152,12.565-3.152c2.937,0,5.489,0.521,7.681,1.548
		c2.181,1.04,4.021,2.7,5.529,5.004c1.485,2.304,2.23,5.263,2.23,8.844v13.046c0,3.761,0.768,7.512,2.326,11.272h-12.967
		c-0.485-1.072-0.881-2.327-1.173-3.704c-1.288,1.523-2.61,2.688-4.021,3.443c-1.395,0.78-2.87,1.153-4.428,1.153
		c-2.993,0-5.693-1.187-8.076-3.593c-2.361-2.416-3.558-5.342-3.558-8.799c0-7.736,6.687-12.492,20.083-14.197
		c-0.3-1.412-1.029-2.474-2.215-3.162c-1.152-0.712-2.756-1.085-4.801-1.085c-2.982,0-6.065,1.231-9.193,3.683v-10.301H686.106z
		 M702.299,507.259c-5.434,0.485-8.133,2.507-8.133,6.087c0,1.333,0.389,2.451,1.208,3.4c0.803,0.915,1.767,1.378,2.886,1.378
		c1.322,0,2.31-0.542,2.999-1.672c0.7-1.118,1.04-2.519,1.04-4.212V507.259z"/>
	<path fill="#283A96" d="M733.596,491.739c1.152-1.661,2.462-2.902,3.892-3.727c1.474-0.813,3.089-1.21,4.896-1.21
		c3.05,0,5.635,1.118,7.681,3.354c2.049,2.249,3.095,5.027,3.095,8.393v27.967h-12.955v-25.289c0-2.215-0.819-3.311-2.457-3.311
		c-1.135,0-2.05,0.61-2.734,1.809c-0.671,1.186-1.004,2.856-1.004,4.98v21.811h-12.786v-38.82h11.107L733.596,491.739z"/>
	<polygon fill="#283A96" points="757.936,469.704 770.813,469.704 770.813,499.51 776.991,487.696 789.076,487.696 781.611,498.56 
		790.669,526.516 777.013,526.516 772.586,511.709 770.813,514.295 770.813,526.516 757.936,526.516 	"/>
	<path fill="#283A96" d="M799.325,489.955c4.429-2.113,8.636-3.152,12.602-3.152c2.918,0,5.488,0.521,7.668,1.548
		c2.175,1.04,4.016,2.7,5.5,5.004c1.491,2.304,2.26,5.263,2.26,8.844v13.046c0,3.761,0.757,7.512,2.326,11.272h-12.954
		c-0.486-1.072-0.876-2.327-1.192-3.704c-1.265,1.523-2.604,2.688-4.004,3.443c-1.411,0.78-2.864,1.153-4.404,1.153
		c-3.016,0-5.738-1.187-8.115-3.593c-2.384-2.416-3.552-5.342-3.552-8.799c0-7.736,6.697-12.492,20.075-14.197
		c-0.299-1.412-1.022-2.474-2.174-3.162c-1.197-0.712-2.796-1.085-4.846-1.085c-2.971,0-6.026,1.231-9.189,3.683V489.955z
		 M815.534,507.259c-5.433,0.485-8.133,2.507-8.133,6.087c0,1.333,0.413,2.451,1.226,3.4c0.803,0.915,1.773,1.378,2.87,1.378
		c1.321,0,2.304-0.542,3.015-1.672c0.689-1.118,1.022-2.519,1.022-4.212V507.259z"/>
	<path fill="#283A96" d="M814.845,180.408h-89.358c0,0-34.11,78.657-41.057,94.888c-6.285-15.519-41.046-94.821-41.046-94.821
		h-89.365L539.54,444.358h74.975l3.986-103.078c0.334-9.205,0.688-19.427,1.022-30.325c2.795,9.182,39.3,87.455,40.419,89.815h48.94
		c0.396-0.813,37.646-80.611,40.458-89.896c0.339,10.899,0.689,21.121,1.039,30.326l3.987,103.078h74.953L814.845,180.408z"/>
</g>
</svg>
